<svg xmlns="http://www.w3.org/2000/svg" width="256" height="256" viewBox="0 0 256 256">
  <defs>
    <linearGradient id="bg" x1="0" y1="0" x2="0" y2="1">
      <stop offset="0%" stop-color="#0D47A1"/>
      <stop offset="100%" stop-color="#42A5F5"/>
    </linearGradient>
    <filter id="softShadow" x="-50%" y="-50%" width="200%" height="200%">
      <feOffset dx="0" dy="6"/>
      <feGaussianBlur stdDeviation="8" result="b"/>
      <feColorMatrix in="b" type="matrix" values="0 0 0 0 0  0 0 0 0 0  0 0 0 0 0  0 0 0 0.22 0"/>
      <feBlend in2="SourceGraphic" mode="normal"/>
    </filter>
  </defs>
  <rect x="0" y="0" width="256" height="256" rx="56" fill="url(#bg)"/>
  <g filter="url(#softShadow)">
    <rect x="48" y="92" width="160" height="88" rx="16" fill="#FFFFFF"/>
    <rect x="48" y="76" width="160" height="28" rx="14" fill="#E3F2FD"/>
    <rect x="100" y="52" width="56" height="16" rx="8" fill="#FFFFFF"/>
    <rect x="48" y="120" width="160" height="6" rx="3" fill="#BBDEFB"/>
    <circle cx="128" cy="123" r="8" fill="#FFC107"/>
  </g>
  <g>
    <circle cx="86" cy="132" r="12" fill="#1565C0"/>
    <rect x="92" y="128" width="48" height="8" rx="4" fill="#1565C0"/>
    <polygon points="78,132 90,126 90,138" fill="#FFFFFF"/>
    <rect x="156" y="118" width="4" height="20" fill="#1565C0"/>
    <rect x="148" y="138" width="20" height="24" rx="6" fill="#1565C0"/>
    <polygon points="154,114 162,114 158,108" fill="#1565C0"/>
  </g>
  <g opacity="0.18">
    <rect x="60" y="100" width="36" height="16" rx="8" fill="#0D47A1"/>
    <rect x="160" y="100" width="36" height="16" rx="8" fill="#0D47A1"/>
  </g>
</svg>
